<svg width="271" height="271" viewBox="0 0 271 271" fill="none" xmlns="http://www.w3.org/2000/svg">
<path d="M135.5 271C210.335 271 271 210.335 271 135.5C271 60.6654 210.335 0 135.5 0C60.6654 0 0 60.6654 0 135.5C0 210.335 60.6654 271 135.5 271Z" fill="#343A40"/>
<path fill-rule="evenodd" clip-rule="evenodd" d="M167.087 138.402C158.724 141.784 149.696 143.87 140.254 144.41C138.626 144.503 136.985 144.551 135.333 144.551C133.682 144.551 132.041 144.503 130.412 144.41C120.968 143.869 111.939 141.783 103.574 138.4C86.019 131.299 71.391 118.489 62 102.275C76.638 77.003 103.997 60 135.333 60C166.669 60 194.029 77.003 208.667 102.275C199.274 118.491 184.644 131.302 167.087 138.402Z" fill="white"/>
<path d="M158.237 89H112.64C105.659 89 100 94.6594 100 101.641C100 108.622 105.659 114.281 112.64 114.281H158.237C165.218 114.281 170.878 108.622 170.878 101.64C170.878 94.6593 165.218 89 158.237 89Z" fill="#343A40"/>
<path d="M153.641 106.27C156.204 106.27 158.282 104.195 158.282 101.635C158.282 99.0751 156.204 97 153.641 97C151.078 97 149 99.0751 149 101.635C149 104.195 151.078 106.27 153.641 106.27Z" fill="#CED4DA"/>
<path d="M116.641 106.27C119.204 106.27 121.282 104.195 121.282 101.635C121.282 99.0751 119.204 97 116.641 97C114.078 97 112 99.0751 112 101.635C112 104.195 114.078 106.27 116.641 106.27Z" fill="#CED4DA"/>
<path d="M103.604 147.678C101.582 146.86 99.599 145.966 97.657 145C91.349 149.438 86.016 154.966 82 161.273C88.826 171.992 99.457 180.461 112.216 185.155C118.296 187.392 124.858 188.772 131.723 189.129H138.875C145.738 188.772 157.8 195.562 140.285 212.697C153.046 208.003 181.771 171.993 188.598 161.273C184.594 154.984 179.279 149.47 172.995 145.038C171.076 145.99 169.116 146.872 167.118 147.68C158.755 151.062 149.727 153.148 140.285 153.688C138.657 153.782 137.016 153.829 135.364 153.829C133.712 153.829 132.072 153.782 130.443 153.688C120.999 153.148 111.969 151.061 103.604 147.678Z" fill="white"/>
<path d="M112.641 173.27C115.204 173.27 117.282 171.195 117.282 168.635C117.282 166.075 115.204 164 112.641 164C110.078 164 108 166.075 108 168.635C108 171.195 110.078 173.27 112.641 173.27Z" fill="#343A40"/>
<path d="M134.641 173.27C137.204 173.27 139.282 171.195 139.282 168.635C139.282 166.075 137.204 164 134.641 164C132.078 164 130 166.075 130 168.635C130 171.195 132.078 173.27 134.641 173.27Z" fill="#343A40"/>
<path d="M156.641 173.27C159.204 173.27 161.282 171.195 161.282 168.635C161.282 166.075 159.204 164 156.641 164C154.078 164 152 166.075 152 168.635C152 171.195 154.078 173.27 156.641 173.27Z" fill="#343A40"/>
</svg>
